# xmcd
#
# Track frame offsets:
#	150
#	15577
#	31935
#	47384
#	65610
#	80639
#	97599
#	112702
#	130555
#	145055
#	160535
#	176923
#	193356
#	211544
#	228331
#	245170
#	260729
#
# Disc length: 3686 seconds
#
# Revision: 4
# Processed by: cddbd v1.5.1PL0 Copyright (c) Steve Scherf et al.
# Submitted via: audiograbber 1.83.01
#
DISCID=d70e6411
DTITLE=2005-04 Country Radio - 2005-04 Country Radio
DYEAR=2005
DGENRE=Country
TTITLE0=Tracy Byrd - Tiny Town
TTITLE1=LeAnn Rimes - Probably Wouldn't Be This Way
TTITLE2=Gretchen Wilson - Homewrecker
TTITLE3=Van Zant - Help Somebody
TTITLE4=Hillbillies - Hot Apple Pie
TTITLE5=Blue County - That Summer Song
TTITLE6=Glenn Cummings - Good Old Days
TTITLE7=Reba McEntire - My Sister
TTITLE8=Brian McComas - The Middle Of Nowhere
TTITLE9=Jon Randall - Baby Won't You Come Home
TTITLE10=Pat Green - Baby Doll
TTITLE11=Kevin Sharp - Your Love Reaches Me
TTITLE12=Kevin Fowler - Hard Man To Love
TTITLE13=Joey Martin - Red
TTITLE14=Jim Thayer - A Man Needs To Get A Little Pushy Sometimes
TTITLE15=Fanny Grace - Sweet Tea
TTITLE16=Eddie Bush - It's Hard To Stop A Train
EXTD=
EXTT0=
EXTT1=
EXTT2=
EXTT3=
EXTT4=
EXTT5=
EXTT6=
EXTT7=
EXTT8=
EXTT9=
EXTT10=
EXTT11=
EXTT12=
EXTT13=
EXTT14=
EXTT15=
EXTT16=
PLAYORDER=
